<?xml version="1.0" standalone="no"?>
<!DOCTYPE svg PUBLIC "-//W3C//DTD SVG 20010904//EN"
 "http://www.w3.org/TR/2001/REC-SVG-20010904/DTD/svg10.dtd">
<svg version="1.0" xmlns="http://www.w3.org/2000/svg"
 width="500.000000pt" height="500.000000pt" viewBox="0 0 500.000000 500.000000"
 preserveAspectRatio="xMidYMid meet">

<g transform="translate(0.000000,500.000000) scale(0.100000,-0.100000)"
fill="#000000" stroke="none">
<path d="M2085 4936 c-122 -22 -271 -59 -283 -70 -2 -3 1 -80 8 -171 7 -91 11
-168 8 -171 -3 -3 -50 -23 -104 -45 -82 -34 -100 -38 -109 -26 -67 91 -201
247 -213 247 -31 0 -331 -189 -416 -263 l-39 -33 79 -157 79 -157 -81 -81 -81
-81 -152 82 c-132 72 -153 80 -168 69 -9 -8 -45 -52 -79 -99 -35 -47 -67 -89
-71 -95 -15 -18 -70 -109 -99 -163 l-29 -52 35 -33 c20 -17 65 -57 100 -87 36
-30 80 -68 98 -85 l33 -31 -42 -99 c-23 -55 -45 -103 -49 -108 -3 -4 -84 0
-178 10 -95 9 -174 15 -176 12 -22 -21 -100 -383 -108 -494 l-3 -50 167 -55
168 -54 0 -113 c0 -62 1 -116 3 -120 1 -3 -74 -31 -168 -62 l-170 -56 3 -40
c9 -115 78 -444 97 -463 2 -2 81 2 175 10 117 9 174 10 178 3 11 -17 73 -169
79 -191 4 -16 -14 -36 -84 -95 -48 -40 -97 -81 -108 -91 -11 -9 -31 -25 -45
-36 l-25 -20 23 -48 c41 -84 252 -391 282 -409 9 -5 135 57 279 137 l34 20 81
-81 81 -81 -77 -154 c-76 -153 -77 -154 -57 -174 50 -55 369 -262 402 -262 8
0 21 10 30 23 8 12 27 36 41 52 14 17 52 63 84 103 43 54 62 71 77 68 39 -8
190 -75 193 -86 3 -7 -1 -53 -7 -103 -6 -51 -13 -124 -17 -162 l-6 -71 128
-31 c179 -45 285 -63 363 -63 l66 0 12 48 c6 26 26 96 44 155 l33 107 112 0
112 0 25 -82 c14 -46 35 -116 47 -156 l22 -72 56 0 c59 0 293 44 396 75 l59
17 -7 102 c-3 55 -9 131 -13 168 -5 60 -4 68 13 74 16 5 164 63 184 72 3 1 53
-56 110 -128 l104 -130 75 41 c102 55 221 133 314 208 l77 61 -77 149 -77 149
82 81 82 81 107 -57 c60 -32 125 -67 147 -79 l39 -22 57 71 c76 95 230 333
230 356 0 4 -48 49 -107 101 -158 136 -148 117 -108 203 18 40 37 85 40 100 4
15 11 30 16 33 5 3 81 -2 169 -12 89 -9 163 -14 166 -11 30 30 129 525 109
546 -4 3 -75 29 -158 56 l-152 50 -3 120 -2 120 146 45 c80 25 152 50 161 56
24 17 -3 199 -69 462 -15 60 5 57 -203 38 -77 -7 -143 -10 -147 -7 -3 3 -25
53 -48 109 l-42 104 33 29 c19 16 76 63 127 106 50 42 92 82 92 88 0 29 -142
256 -243 388 l-60 77 -51 -29 c-28 -15 -95 -52 -148 -80 l-97 -52 -82 81 -81
80 77 152 c73 144 76 152 59 165 -11 8 -30 24 -44 36 -85 74 -352 243 -368
233 -5 -3 -53 -59 -108 -126 -78 -95 -103 -120 -119 -116 -11 2 -58 20 -105
40 -83 35 -85 36 -83 68 6 96 26 294 29 300 12 19 -321 98 -486 114 l-65 6
-18 -63 c-10 -35 -32 -108 -49 -161 l-31 -98 -111 0 -111 0 -27 88 c-15 48
-37 120 -48 160 l-22 72 -46 -1 c-26 0 -106 -11 -177 -23z m640 -476 c349 -40
681 -175 954 -387 155 -122 318 -296 417 -448 21 -33 42 -62 46 -65 13 -10
146 -280 172 -348 138 -368 167 -806 80 -1192 -27 -123 -86 -285 -153 -425
-287 -596 -841 -1001 -1485 -1086 -117 -15 -443 -6 -556 15 -676 127 -1229
600 -1470 1256 -41 112 -85 290 -104 421 -21 140 -21 414 0 561 21 152 98 445
125 473 5 5 9 15 9 22 0 28 104 226 172 330 282 428 667 705 1149 828 196 50
446 67 644 45z"/>
<path d="M2343 4364 l7 -79 -35 67 c-37 72 -45 80 -62 70 -8 -5 -8 -36 -2
-107 13 -141 18 -165 34 -165 21 0 23 9 16 77 -8 75 6 70 39 -12 17 -41 27
-55 42 -55 19 0 20 4 13 93 -12 155 -18 181 -39 185 -18 4 -19 -1 -13 -74z"/>
<path d="M2445 4430 c-3 -6 5 -14 19 -20 26 -9 26 -10 26 -130 0 -110 2 -121
18 -118 15 3 17 18 20 121 2 109 4 117 22 117 13 0 20 7 20 20 0 18 -7 20 -59
20 -33 0 -63 -5 -66 -10z"/>
<path d="M2857 4403 c-15 -25 -60 -254 -51 -263 5 -5 31 -13 57 -16 39 -6 47
-4 47 9 0 9 -12 18 -30 22 -25 5 -30 12 -30 35 0 46 9 61 35 54 13 -3 28 -3
34 0 18 11 0 36 -26 36 -21 0 -24 4 -19 23 3 12 6 30 6 40 0 15 7 18 37 15 29
-2 39 1 41 14 2 11 -6 18 -30 23 -18 3 -40 9 -50 11 -9 3 -18 1 -21 -3z"/>
<path d="M2095 4393 c-11 -3 -23 -8 -27 -11 -8 -8 39 -253 50 -264 4 -4 29 -2
55 4 35 9 47 16 45 27 -3 12 -13 15 -41 13 -30 -3 -37 0 -37 15 0 10 -3 28 -6
40 -4 16 -1 24 10 28 9 3 23 7 31 10 28 8 5 35 -24 29 -23 -5 -29 -2 -34 18
-12 44 -8 56 23 63 38 8 40 35 3 34 -16 -1 -37 -3 -48 -6z"/>
<path d="M1961 4286 c2 -41 1 -77 -1 -80 -3 -2 -21 22 -40 55 -26 45 -40 59
-55 56 -11 -1 -19 -7 -19 -12 4 -27 78 -255 83 -255 3 0 12 4 19 8 9 7 9 18
-4 56 -20 58 -13 68 14 21 12 -19 26 -35 32 -35 5 0 10 23 11 53 l0 52 22 -57
c19 -52 38 -71 50 -50 3 4 -3 32 -13 62 -10 30 -28 88 -40 128 -17 58 -26 72
-42 72 -18 0 -20 -6 -17 -74z"/>
<path d="M2995 4243 c-21 -65 -40 -124 -42 -130 -3 -8 3 -13 15 -13 15 0 25
16 45 68 l25 67 1 -81 c1 -66 4 -83 17 -88 9 -4 19 -5 21 -3 6 7 83 241 83
254 0 7 -8 13 -18 13 -13 0 -22 -16 -35 -60 -10 -33 -22 -60 -28 -60 -5 0 -9
34 -9 75 0 66 -2 75 -18 75 -15 0 -26 -24 -57 -117z"/>
<path d="M1778 4282 c-22 -4 -23 1 7 -66 37 -83 31 -88 -28 -25 -48 53 -77 65
-77 34 0 -16 89 -226 101 -240 6 -5 13 -5 21 3 9 9 5 26 -15 73 -15 35 -25 64
-23 66 2 2 25 -19 51 -46 45 -47 85 -66 85 -40 0 10 -98 242 -103 245 -1 0
-10 -1 -19 -4z"/>
<path d="M3213 4273 c-3 -10 -25 -62 -49 -115 -24 -54 -44 -101 -44 -106 0
-10 85 -52 105 -52 11 0 65 98 65 120 0 4 -12 12 -27 19 -32 15 -53 0 -34 -23
10 -12 9 -21 -4 -45 -13 -27 -19 -30 -35 -21 -11 6 -20 13 -20 16 0 3 17 43
37 90 31 71 40 84 57 82 16 -2 21 -10 21 -33 0 -41 28 -45 45 -6 15 36 9 46
-40 71 -48 25 -69 25 -77 3z"/>
<path d="M1546 4160 c-34 -22 -45 -34 -38 -43 5 -7 31 -52 57 -102 56 -105 68
-120 90 -111 15 5 13 12 -14 59 -17 28 -43 76 -59 105 -26 52 -27 54 -8 68 18
13 21 11 38 -14 20 -30 24 -62 8 -62 -25 0 -6 -31 45 -75 46 -39 58 -45 70
-35 13 11 8 18 -30 52 -37 33 -43 42 -34 57 9 13 5 29 -21 74 -17 31 -37 57
-44 57 -7 0 -34 -14 -60 -30z"/>
<path d="M3411 4123 c-19 -32 -48 -83 -66 -113 -32 -53 -35 -80 -10 -80 16 0
148 227 140 240 -13 22 -32 7 -64 -47z"/>
<path d="M3537 4048 c-20 -29 -55 -79 -78 -112 -33 -46 -39 -60 -28 -67 15 -9
15 -9 76 67 l32 39 -20 -79 c-19 -75 -16 -108 9 -92 13 8 152 204 152 215 0 5
-6 11 -14 14 -9 4 -28 -13 -52 -49 -20 -30 -39 -52 -41 -50 -2 2 4 33 13 70
27 107 7 125 -49 44z"/>
<path d="M2345 4083 c-158 -20 -336 -70 -459 -128 -69 -33 -188 -99 -210 -116
-6 -5 -47 -37 -91 -71 -314 -244 -528 -613 -591 -1019 -24 -155 -22 -394 5
-542 79 -438 327 -822 683 -1059 255 -170 515 -248 826 -248 310 0 567 79 837
257 122 81 312 268 403 397 75 107 168 295 211 426 94 288 105 636 30 926
-160 619 -666 1084 -1269 1169 -100 14 -299 18 -375 8z m290 -43 c357 -34 670
-187 929 -454 160 -165 277 -365 355 -604 57 -172 75 -294 74 -497 0 -271 -44
-458 -166 -704 -109 -222 -220 -357 -448 -546 -47 -39 -135 -93 -224 -138
-244 -122 -510 -173 -775 -148 -464 45 -860 290 -1122 697 -87 136 -170 344
-209 525 -26 121 -36 397 -20 524 48 362 194 659 450 916 179 179 347 285 567
358 206 69 382 90 589 71z"/>
<path d="M2427 3994 c-72 -72 -16 -183 86 -170 133 16 120 196 -14 196 -36 0
-52 -5 -72 -26z"/>
<path d="M2425 3718 c-128 -70 -129 -235 -3 -297 25 -11 60 -21 79 -21 50 1
112 33 145 75 57 75 27 198 -59 238 -40 19 -132 22 -162 5z m98 -19 c5 -17 10
-19 42 -13 35 6 36 6 33 -22 -2 -22 2 -29 17 -32 33 -7 40 -20 20 -42 -18 -19
-18 -21 0 -40 20 -22 13 -35 -20 -42 -15 -3 -19 -10 -17 -32 3 -27 2 -28 -32
-22 -29 6 -37 3 -46 -14 -14 -26 -30 -26 -37 0 -4 17 -12 20 -41 18 -33 -3
-36 0 -37 22 0 18 -6 26 -22 28 -27 4 -29 19 -8 43 14 15 14 18 0 32 -24 24
-19 47 11 47 22 0 25 4 22 28 -3 26 -1 27 34 24 29 -2 38 1 43 18 8 26 31 26
38 -1z"/>
<path d="M2451 3614 c-27 -35 -26 -59 4 -89 29 -30 64 -32 93 -5 45 42 13 120
-49 120 -18 0 -35 -9 -48 -26z"/>
<path d="M1389 3405 c-40 -22 -54 -64 -36 -108 17 -41 42 -57 87 -57 45 0 70
16 87 57 12 29 12 41 2 65 -21 51 -87 72 -140 43z"/>
<path d="M3501 3399 c-68 -63 -32 -159 59 -159 95 0 130 102 56 162 -30 24
-87 23 -115 -3z"/>
<path d="M2420 3274 c-44 -19 -67 -40 -98 -89 -38 -61 -72 -94 -127 -123 -46
-23 -60 -25 -164 -24 -99 1 -119 -1 -151 -19 -70 -40 -96 -119 -65 -204 22
-61 18 -119 -11 -181 -25 -54 -70 -97 -156 -149 -38 -23 -62 -83 -52 -128 3
-15 22 -43 41 -60 134 -122 166 -197 132 -307 -32 -109 11 -170 129 -183 69
-8 122 -72 122 -147 0 -21 9 -41 29 -61 58 -57 155 -28 167 51 5 29 -1 45 -36
98 -23 34 -74 96 -113 138 -91 96 -131 155 -163 241 -23 59 -26 83 -27 188 0
98 4 132 22 185 84 243 301 403 566 417 127 6 220 -12 329 -67 141 -69 262
-209 312 -360 26 -77 26 -263 0 -340 -30 -89 -74 -158 -164 -254 -92 -101
-162 -198 -162 -228 0 -28 27 -76 49 -88 26 -13 74 -13 105 1 26 12 40 39 52
99 15 77 66 130 127 130 41 0 93 25 112 54 18 27 17 41 -1 174 -11 80 11 128
97 214 88 86 101 119 75 181 -11 27 -33 48 -84 81 -77 49 -102 79 -126 149
-19 58 -20 99 -1 152 18 49 19 109 3 138 -16 31 -69 76 -97 83 -13 4 -63 4
-111 0 -74 -6 -96 -3 -141 14 -70 26 -118 66 -159 134 -57 94 -165 131 -260
90z"/>
<path d="M3272 3252 c-101 -54 -92 -184 15 -229 54 -22 132 6 158 57 34 67 6
148 -61 176 -44 18 -72 17 -112 -4z m78 -17 c0 -11 7 -14 25 -9 21 5 25 3 25
-15 0 -12 6 -21 14 -21 22 0 29 -19 15 -36 -9 -11 -9 -18 -1 -26 18 -18 14
-28 -8 -28 -15 0 -20 -7 -20 -26 0 -21 -3 -24 -21 -19 -14 5 -25 1 -34 -12
-13 -17 -14 -17 -27 0 -8 11 -23 17 -34 15 -13 -2 -20 3 -22 20 -2 12 -9 22
-17 22 -17 0 -14 82 3 88 7 2 12 12 12 21 0 25 11 33 28 18 12 -10 17 -9 26 6
13 21 36 22 36 2z"/>
<path d="M3309 3186 c-46 -23 -27 -96 26 -96 30 0 45 19 45 55 0 40 -34 60
-71 41z"/>
<path d="M1615 3250 c-67 -27 -94 -119 -53 -180 32 -47 63 -62 123 -57 42 4
54 10 82 42 27 31 33 47 33 83 0 38 -5 50 -39 83 -33 34 -45 39 -82 38 -24 0
-53 -4 -64 -9z m69 -16 c3 -9 15 -14 28 -12 17 2 24 -3 26 -18 2 -12 13 -24
24 -27 18 -5 19 -8 8 -22 -11 -13 -11 -20 -1 -37 10 -17 9 -20 -8 -25 -12 -3
-21 -14 -21 -24 0 -22 -16 -34 -25 -19 -5 8 -13 6 -26 -6 -15 -13 -22 -14 -33
-5 -8 7 -23 11 -33 9 -12 -2 -19 4 -21 20 -2 12 -10 22 -19 22 -11 0 -14 6 -9
26 4 15 2 32 -5 40 -10 12 -8 16 9 21 15 4 22 13 22 30 0 22 3 24 25 19 18 -5
27 -2 31 9 8 19 20 19 28 -1z"/>
<path d="M1636 3174 c-31 -31 -7 -94 36 -94 23 0 48 33 48 63 0 42 -54 62 -84
31z"/>
<path d="M2430 2817 c0 -61 -3 -77 -20 -92 -14 -13 -20 -31 -20 -60 0 -39 -4
-45 -60 -89 -33 -26 -60 -52 -60 -58 0 -22 75 -128 90 -128 8 1 24 7 34 15 19
14 18 16 -7 54 -28 42 -33 61 -18 61 5 0 16 6 23 13 65 64 129 74 187 30 75
-57 74 -55 46 -95 -30 -45 -31 -59 -4 -76 15 -10 24 -10 34 -2 24 20 75 106
75 126 0 11 -23 37 -55 63 -51 41 -55 47 -55 86 0 31 -5 46 -20 56 -16 12 -20
27 -23 89 l-3 75 -72 3 -72 3 0 -74z"/>
<path d="M1354 2501 c-58 -25 -83 -112 -46 -157 69 -82 201 -44 202 58 0 73
-87 128 -156 99z m56 -22 c0 -7 10 -9 25 -5 20 5 25 3 25 -14 0 -11 7 -20 15
-20 17 0 20 -16 4 -26 -8 -4 -8 -9 0 -17 15 -15 14 -27 -4 -27 -9 0 -15 -9
-15 -21 0 -16 -5 -20 -20 -16 -12 3 -24 -1 -30 -11 -9 -16 -11 -16 -21 1 -7
12 -17 16 -30 12 -15 -5 -19 -2 -19 14 0 12 -7 21 -15 21 -18 0 -20 16 -2 24
10 5 10 7 0 12 -18 8 -16 34 2 34 8 0 15 9 15 20 0 17 5 19 25 14 15 -4 25 -2
25 5 0 6 5 11 10 11 6 0 10 -5 10 -11z"/>
<path d="M1378 2439 c-26 -14 -24 -66 2 -74 11 -3 29 -3 40 0 27 9 27 60 1 75
-23 12 -22 12 -43 -1z"/>
<path d="M3554 2500 c-31 -12 -64 -59 -64 -90 0 -15 10 -42 23 -61 59 -87 198
-48 197 56 -1 77 -80 126 -156 95z m66 -21 c0 -6 9 -8 20 -4 16 5 20 2 20 -14
0 -12 6 -21 13 -21 8 0 13 -13 13 -35 0 -22 -5 -35 -13 -35 -7 0 -13 -9 -13
-21 0 -15 -5 -19 -19 -14 -12 4 -21 0 -25 -11 -5 -14 -9 -14 -22 -3 -9 8 -24
14 -33 14 -9 0 -16 6 -16 13 0 7 -6 17 -14 21 -7 5 -11 14 -7 20 4 6 2 19 -3
30 -9 15 -7 20 10 24 11 3 18 11 17 19 -2 8 5 12 20 11 12 -2 22 2 22 7 0 6 7
10 15 10 8 0 15 -5 15 -11z"/>
<path d="M3578 2439 c-22 -12 -23 -52 -3 -69 8 -7 25 -10 39 -6 33 8 43 42 20
67 -19 21 -31 23 -56 8z"/>
<path d="M1068 2483 c-73 -46 -18 -160 66 -139 77 19 84 118 10 146 -34 13
-44 12 -76 -7z"/>
<path d="M3860 2493 c-33 -12 -50 -37 -50 -72 0 -42 7 -54 37 -70 35 -18 72
-13 98 14 61 60 -4 158 -85 128z"/>
<path d="M2443 2414 c-18 -8 -33 -16 -33 -18 0 -2 18 -4 40 -4 33 -1 40 3 40
19 0 22 -4 22 -47 3z"/>
<path d="M2500 2410 c0 -15 7 -20 25 -20 28 0 34 24 9 34 -26 10 -34 7 -34
-14z"/>
<path d="M2560 2400 c0 -5 5 -10 10 -10 6 0 10 5 10 10 0 6 -4 10 -10 10 -5 0
-10 -4 -10 -10z"/>
<path d="M2374 2354 c-29 -43 -15 -51 95 -52 109 0 110 0 95 56 -5 16 -14 22
-35 22 -24 0 -28 -4 -32 -32 l-4 -33 -1 32 c-2 31 -3 32 -52 31 -42 0 -53 -4
-66 -24z m53 -26 c-3 -7 -5 -2 -5 12 0 14 2 19 5 13 2 -7 2 -19 0 -25z"/>
<path d="M2574 2358 c3 -13 6 -31 6 -40 0 -12 8 -18 24 -18 33 0 37 9 21 48
-10 22 -21 32 -36 32 -17 0 -20 -4 -15 -22z"/>
<path d="M2360 2278 c1 -7 7 -24 14 -38 12 -21 22 -25 65 -27 l51 -1 0 39 0
39 -65 0 c-46 0 -65 -4 -65 -12z m67 -35 c-3 -10 -5 -4 -5 12 0 17 2 24 5 18
2 -7 2 -21 0 -30z"/>
<path d="M2502 2253 c3 -33 6 -38 27 -38 18 0 27 8 37 35 l13 35 -6 -39 c-5
-34 -4 -38 11 -33 10 4 21 7 26 7 6 0 30 52 30 66 0 2 -32 4 -71 4 l-70 0 3
-37z"/>
<path d="M2277 2272 c-3 -4 16 -30 41 -59 40 -43 54 -52 92 -57 37 -5 41 -4
25 5 -11 7 -46 36 -77 65 -55 53 -72 62 -81 46z"/>
<path d="M2205 2251 c-5 -9 31 -69 79 -126 l24 -30 12 29 c9 26 8 32 -12 52
-13 12 -36 36 -51 53 -30 32 -42 37 -52 22z"/>
<path d="M2116 2192 c-6 -11 15 -29 79 -68 60 -36 135 -67 135 -56 0 5 -17 14
-38 20 -22 7 -57 32 -87 62 -46 47 -77 61 -89 42z"/>
<path d="M2415 2190 c3 -5 10 -10 16 -10 5 0 9 5 9 10 0 6 -7 10 -16 10 -8 0
-12 -4 -9 -10z"/>
<path d="M2450 2186 c0 -17 26 -24 64 -16 37 7 47 30 13 30 -14 0 -28 -6 -30
-12 -4 -10 -6 -10 -6 0 -1 17 -41 15 -41 -2z"/>
<path d="M2560 2190 c0 -5 4 -10 9 -10 6 0 13 5 16 10 3 6 -1 10 -9 10 -9 0
-16 -4 -16 -10z"/>
<path d="M2525 2146 l-60 -12 42 -8 c32 -6 49 -3 80 13 44 23 29 25 -62 7z"/>
<path d="M2610 2130 c-43 -24 -92 -25 -152 -4 -65 22 -122 16 -126 -13 -4 -26
28 -45 108 -62 83 -19 120 -32 120 -42 0 -5 -17 -2 -37 6 -21 8 -72 19 -113
24 -118 17 -132 20 -185 50 -27 15 -62 31 -77 34 -33 8 -50 -12 -24 -27 10 -6
48 -30 85 -53 37 -23 108 -56 159 -72 l92 -30 77 19 c118 30 148 27 189 -16
19 -20 34 -41 34 -45 0 -5 5 -9 11 -9 15 0 119 90 119 103 0 18 -71 96 -115
127 -52 36 -111 39 -165 10z"/>
<path d="M2403 1874 c-10 -26 16 -34 108 -34 70 0 88 3 93 16 11 29 -4 34
-100 34 -78 0 -96 -3 -101 -16z"/>
<path d="M2406 1783 c-10 -26 12 -33 105 -33 70 0 88 3 93 16 11 29 -4 34 -99
34 -77 0 -94 -3 -99 -17z"/>
<path d="M2485 1703 c-12 -11 -15 -32 -13 -82 l3 -66 30 0 c29 0 30 1 33 54 5
91 -17 130 -53 94z"/>
<path d="M2244 1406 c5 -24 2 -39 -9 -49 -17 -17 -20 -37 -6 -37 19 0 23 -41
7 -59 -20 -22 -20 -28 -1 -47 19 -20 19 -29 -2 -49 -15 -16 -15 -19 1 -46 9
-16 15 -33 12 -38 -3 -5 10 -23 29 -40 29 -25 44 -31 84 -31 35 0 53 -5 66
-20 14 -15 31 -20 74 -20 45 0 60 4 71 20 11 16 26 20 66 20 45 0 56 4 88 34
30 29 36 42 36 74 0 33 4 41 22 46 18 4 20 8 11 17 -9 9 -52 7 -185 -10 -209
-26 -208 -26 -208 -2 0 14 10 20 43 24 24 4 65 13 90 22 26 9 58 13 72 9 14
-3 31 -1 39 5 7 6 40 14 74 17 33 4 66 11 74 15 23 16 -13 30 -57 24 -98 -15
-272 -35 -302 -35 -22 0 -33 5 -33 14 0 17 14 22 84 32 27 4 60 13 75 20 14 7
35 11 48 8 12 -3 28 -2 35 3 7 4 44 13 82 18 39 6 71 16 74 23 5 16 -54 16
-193 -3 -144 -19 -205 -20 -205 -1 0 17 16 23 93 32 47 5 57 10 57 25 0 18
-10 19 -156 19 l-156 0 6 -34z m116 -50 c0 -8 -4 -17 -8 -20 -13 -8 -35 11
-28 23 10 16 36 14 36 -3z m0 -102 c0 -8 -9 -14 -20 -14 -22 0 -28 26 -7 33
16 6 27 -1 27 -19z m0 -94 c0 -11 -6 -20 -14 -20 -18 0 -29 16 -21 30 11 18
35 11 35 -10z"/>
<path d="M2610 1425 c0 -8 7 -15 15 -15 8 0 15 7 15 15 0 8 -7 15 -15 15 -8 0
-15 -7 -15 -15z"/>
<path d="M1387 4046 l-39 -32 74 -107 c40 -58 77 -107 82 -107 18 0 86 52 86
66 0 19 -20 18 -49 -2 -22 -16 -24 -15 -47 12 -29 36 -29 39 -3 58 14 9 19 21
15 31 -6 16 -8 16 -33 0 -25 -17 -27 -17 -44 6 -24 31 -24 45 2 63 13 9 19 21
16 30 -9 22 -17 20 -60 -18z"/>
<path d="M1272 3948 c-7 -9 2 -31 29 -77 22 -35 37 -66 35 -68 -3 -3 -30 16
-62 41 -31 26 -62 45 -68 43 -22 -7 -16 -33 11 -49 15 -9 37 -25 48 -35 11
-10 46 -38 78 -63 52 -38 60 -42 73 -28 13 13 10 24 -33 94 -27 43 -57 96 -68
117 -21 40 -27 44 -43 25z"/>
<path d="M3659 3869 c-46 -51 -85 -97 -87 -103 -1 -6 13 -27 33 -46 27 -26 38
-31 47 -22 9 9 6 18 -12 37 l-24 25 29 30 c27 28 30 29 52 15 34 -22 47 -9 23
22 l-21 26 28 29 27 28 28 -27 c24 -23 28 -24 34 -9 5 12 -4 28 -27 52 -18 19
-36 34 -39 34 -4 0 -45 -41 -91 -91z"/>
<path d="M3798 3738 c-51 -45 -96 -87 -100 -92 -9 -13 49 -86 68 -86 18 0 18
24 -1 40 -21 17 -19 33 8 58 29 27 39 28 55 1 11 -16 16 -18 27 -9 13 11 12
16 -5 37 l-19 25 31 26 31 26 17 -22 c18 -22 50 -30 50 -13 0 8 -33 54 -57 79
-10 10 -30 -3 -105 -70z"/>
<path d="M1101 3768 c-22 -24 -41 -47 -41 -52 0 -15 174 -175 192 -176 18 0
78 70 78 92 0 13 -143 152 -175 171 -9 4 -28 -8 -54 -35z m177 -152 c-5 -37
-32 -27 -103 38 -69 63 -70 64 -51 85 l18 20 70 -61 c49 -44 68 -68 66 -82z"/>
<path d="M3996 3662 c-3 -5 -48 -39 -101 -76 -52 -38 -95 -74 -95 -81 0 -31
24 -24 93 28 94 71 111 79 125 65 18 -18 14 -31 -15 -52 -22 -16 -29 -17 -46
-6 -18 11 -23 9 -39 -11 -52 -68 -68 -97 -62 -112 10 -27 21 -20 50 29 23 39
30 45 51 39 18 -4 37 3 74 30 27 20 49 41 49 47 0 11 -56 94 -69 103 -5 3 -12
1 -15 -3z"/>
<path d="M980 3608 c-16 -23 -30 -49 -30 -58 0 -16 174 -152 197 -154 18 -1
84 87 75 100 -4 6 -29 27 -56 47 l-48 37 -19 -24 c-27 -34 -24 -47 10 -44 41
3 74 -27 60 -54 -13 -25 -22 -21 -108 43 -60 45 -68 55 -60 71 8 15 17 18 40
13 24 -6 29 -3 29 13 0 20 -13 35 -42 45 -12 4 -26 -6 -48 -35z"/>
<path d="M4090 3426 c-19 -13 -65 -40 -102 -60 -48 -26 -68 -43 -68 -57 0 -17
3 -18 29 -7 85 37 211 114 211 131 0 23 -27 21 -70 -7z"/>
<path d="M4168 3296 c-15 -8 -63 -29 -107 -46 -61 -25 -81 -37 -81 -51 0 -25
14 -24 78 6 30 14 57 25 60 25 4 0 -20 -26 -51 -58 -41 -41 -56 -63 -51 -75 3
-9 7 -17 8 -17 1 0 47 19 102 43 121 51 147 67 135 85 -6 11 -20 8 -70 -12
-33 -13 -61 -22 -61 -18 0 4 23 28 51 54 35 31 50 52 46 62 -8 20 -24 20 -59
2z"/>
<path d="M787 3243 c-14 -13 -6 -30 21 -43 58 -27 206 -90 213 -90 4 0 10 7
13 15 6 15 -41 41 -192 106 -50 22 -47 21 -55 12z"/>
<path d="M4150 3078 c-52 -16 -98 -33 -102 -37 -4 -4 0 -32 9 -64 18 -64 22
-66 102 -40 55 17 56 19 41 57 -11 30 -40 35 -40 7 0 -12 -11 -23 -30 -30 -28
-9 -32 -8 -39 12 -5 12 -6 25 -2 28 12 12 173 59 182 53 17 -10 10 -51 -11
-57 -14 -4 -18 -10 -14 -22 5 -13 14 -15 37 -11 42 9 47 21 31 75 -8 25 -14
49 -14 54 0 14 -56 5 -150 -25z"/>
<path d="M741 3086 c-11 -13 -41 -92 -41 -107 0 -4 39 -20 88 -35 48 -15 106
-33 130 -40 41 -13 42 -12 42 9 0 19 -14 26 -105 55 -85 26 -105 36 -105 52 0
27 11 31 54 19 30 -8 36 -14 34 -32 -4 -27 20 -32 99 -22 42 5 53 10 53 25 0
16 -7 18 -60 13 -55 -5 -60 -4 -60 14 0 20 -13 28 -87 51 -24 8 -34 7 -42 -2z"/>
<path d="M680 2882 c0 -15 12 -21 55 -30 30 -7 80 -17 110 -24 51 -10 55 -13
55 -40 0 -24 -3 -28 -22 -23 -77 18 -173 35 -194 35 -19 0 -25 -5 -22 -17 4
-23 241 -74 259 -56 7 7 14 37 17 67 l4 55 -38 10 c-42 11 -200 41 -215 41 -5
0 -9 -8 -9 -18z"/>
<path d="M4185 2701 l-60 -6 0 -65 0 -65 40 0 c30 0 41 4 43 18 3 12 -3 17
-21 17 -25 0 -41 27 -28 48 3 5 48 13 99 17 l92 7 0 -31 c0 -17 -3 -30 -7 -30
-24 4 -43 -3 -43 -15 0 -22 17 -29 56 -22 32 7 34 9 34 49 0 83 -4 87 -79 85
-36 -1 -93 -4 -126 -7z"/>
<path d="M656 2678 c-3 -7 -7 -35 -10 -61 -7 -60 -2 -62 150 -72 l111 -7 7 57
c9 75 0 85 -75 85 -55 0 -59 -2 -65 -26 -9 -35 12 -56 31 -31 9 12 23 17 42
15 22 -2 29 -9 31 -32 l4 -28 -79 7 c-112 10 -125 14 -121 39 2 13 11 22 26
24 14 2 22 10 22 23 0 15 -7 19 -35 19 -20 0 -37 -6 -39 -12z"/>
<path d="M4126 2468 c-4 -30 -4 -61 -1 -70 7 -17 82 -28 196 -28 l67 0 4 58
c3 32 0 62 -6 68 -6 7 -63 15 -132 19 l-121 7 -7 -54z m222 -3 c17 -6 15 -44
-3 -51 -9 -4 -54 -3 -100 1 -84 7 -85 7 -85 33 l0 27 87 -3 c49 -2 94 -5 101
-7z"/>
<path d="M640 2420 c0 -19 7 -20 135 -20 128 0 135 1 135 20 0 19 -7 20 -135
20 -128 0 -135 -1 -135 -20z"/>
<path d="M4116 2304 c-3 -9 -6 -33 -6 -55 0 -28 4 -39 15 -39 9 0 15 9 15 25
0 14 7 28 15 31 8 3 57 -1 109 -10 117 -20 116 -20 116 4 0 11 -1 20 -2 20 -2
0 -57 9 -123 20 -144 24 -132 24 -139 4z"/>
<path d="M770 2271 c-83 -30 -105 -41 -105 -56 0 -24 34 -32 168 -36 86 -3
102 -2 102 11 0 9 -11 16 -27 18 -23 3 -28 8 -28 31 0 20 6 30 20 34 28 7 26
37 -2 36 -13 0 -70 -17 -128 -38z m70 -35 c0 -22 -13 -26 -56 -19 l-39 6 35
13 c47 17 60 17 60 0z"/>
<path d="M4085 2118 c-12 -50 -10 -83 5 -83 9 0 16 11 18 28 4 34 13 34 121 2
47 -14 93 -25 103 -25 19 0 25 25 7 35 -11 7 -226 65 -240 65 -5 0 -11 -10
-14 -22z"/>
<path d="M756 2095 c-27 -7 -53 -18 -57 -22 -12 -12 11 -123 25 -123 6 0 64
12 129 27 105 25 117 30 115 48 -2 11 -8 19 -13 18 -6 -1 -26 -4 -46 -8 -36
-7 -37 -6 -46 32 -10 45 -29 50 -107 28z m78 -52 c10 -24 -8 -36 -56 -37 -36
-1 -43 2 -43 19 0 32 88 48 99 18z"/>
<path d="M4035 1935 c-21 -52 -22 -69 -4 -73 11 -2 20 7 27 27 13 36 9 34 51
20 30 -11 32 -14 26 -45 -5 -27 -3 -34 10 -34 8 0 20 11 25 25 11 29 12 30 51
9 24 -12 29 -19 23 -37 -12 -36 -10 -52 6 -52 10 0 49 79 50 101 0 4 -231 94
-240 94 -5 0 -16 -16 -25 -35z"/>
<path d="M967 1944 c-3 -3 -1 -17 5 -30 6 -13 9 -27 6 -30 -3 -3 -50 -22 -104
-43 -79 -29 -99 -41 -99 -56 0 -12 6 -19 15 -18 17 2 231 80 238 87 2 3 -4 25
-13 50 -16 42 -32 55 -48 40z"/>
<path d="M3965 1760 c-14 -28 -23 -55 -20 -59 9 -15 92 -61 110 -61 20 0 40
49 25 64 -8 8 -13 7 -19 -3 -8 -12 -14 -12 -40 -1 -32 13 -37 25 -21 50 8 13
22 8 95 -29 47 -25 85 -50 85 -57 0 -19 -25 -34 -48 -27 -36 9 -29 -32 8 -47
27 -11 32 -11 45 6 20 28 39 90 30 103 -7 13 -198 111 -215 111 -5 0 -21 -23
-35 -50z"/>
<path d="M940 1718 c-99 -76 -111 -91 -90 -111 13 -14 255 56 255 73 0 10 -12
16 -32 18 -37 4 -50 28 -28 52 16 18 21 50 7 50 -4 0 -55 -37 -112 -82z m65
-37 c-16 -13 -75 -31 -75 -21 0 15 64 50 74 40 6 -6 6 -13 1 -19z"/>
<path d="M3886 1610 c-29 -44 -33 -70 -11 -70 8 0 15 3 15 8 0 4 7 15 15 25
13 18 15 18 44 1 32 -19 39 -42 19 -62 -9 -9 -9 -15 1 -24 10 -11 16 -9 28 10
19 27 30 27 62 3 24 -18 24 -19 7 -46 -14 -21 -15 -29 -5 -41 10 -12 16 -8 40
28 16 24 29 46 29 50 0 3 -21 21 -47 40 -65 46 -145 103 -159 111 -7 4 -23
-10 -38 -33z"/>
<path d="M1017 1559 c-76 -49 -105 -73 -101 -84 4 -8 10 -15 15 -15 5 0 51 27
102 60 84 54 93 58 105 42 11 -14 10 -20 -8 -34 -21 -17 -26 -33 -11 -42 13
-9 71 26 71 43 0 19 -41 89 -55 95 -6 2 -59 -27 -118 -65z"/>
<path d="M3660 1273 c-127 -66 -92 -264 48 -266 75 -2 131 48 139 124 11 107
-97 189 -187 142z"/>
<path d="M1260 1254 c-47 -30 -65 -64 -65 -127 0 -56 2 -60 42 -98 47 -44 90
-51 146 -24 128 61 84 266 -57 265 -23 0 -52 -8 -66 -16z"/>
<path d="M3340 1044 c0 -25 107 -244 120 -244 26 0 17 34 -36 143 -51 105 -84
145 -84 101z"/>
<path d="M3171 959 c-34 -15 -42 -23 -36 -37 4 -9 25 -68 47 -129 22 -62 45
-113 50 -113 22 0 17 37 -16 136 -20 59 -35 108 -34 109 2 1 13 5 25 9 18 6
23 1 33 -29 10 -31 9 -39 -4 -54 -14 -16 -14 -19 1 -42 10 -13 22 -29 28 -35
5 -6 17 -21 25 -33 15 -22 50 -29 50 -10 0 5 -16 31 -36 57 -19 26 -31 48 -25
50 15 5 14 32 -6 91 -18 58 -30 62 -102 30z"/>
<path d="M1744 870 c-32 -55 -61 -100 -64 -100 -3 0 -11 4 -19 9 -12 8 -13 15
-3 35 9 19 8 27 -3 36 -11 9 -18 5 -35 -22 -11 -18 -20 -36 -20 -40 0 -14 81
-67 95 -62 21 9 138 212 131 229 -11 29 -25 14 -82 -85z"/>
<path d="M1934 912 c-14 -9 -154 -213 -154 -224 0 -14 32 -9 45 8 8 11 19 14
34 9 18 -5 21 -13 19 -38 -2 -23 2 -32 14 -35 13 -2 19 9 28 55 7 32 21 91 31
132 16 61 18 77 7 87 -7 7 -18 10 -24 6z m-24 -129 c-16 -48 -27 -60 -41 -46
-8 8 -3 23 16 53 31 49 42 47 25 -7z"/>
<path d="M3063 902 c-9 -6 -6 -33 13 -111 29 -124 29 -127 4 -134 -26 -7 -31
4 -60 126 -19 79 -27 97 -42 97 -10 0 -18 -6 -18 -12 1 -21 55 -232 62 -244 6
-8 20 -8 55 0 57 13 73 22 68 39 -2 7 -16 65 -31 130 -15 64 -30 117 -33 117
-3 0 -11 -4 -18 -8z"/>
<path d="M2041 746 c-22 -69 -41 -128 -41 -133 0 -11 86 -43 94 -36 14 14 4
33 -19 39 -14 3 -25 11 -25 18 0 6 16 58 35 116 33 100 34 119 4 120 -3 0 -25
-56 -48 -124z"/>
<path d="M2823 843 c-32 -4 -33 -6 -32 -51 0 -26 6 -87 12 -137 l12 -90 50 3
c28 1 56 5 63 7 13 5 16 62 6 114 -6 29 -10 32 -37 29 -36 -4 -48 -27 -18 -35
17 -4 21 -13 21 -44 0 -34 -3 -39 -24 -39 -26 0 -27 5 -42 148 -7 62 -7 62 20
62 19 0 26 -5 26 -20 0 -14 7 -20 21 -20 17 0 20 5 17 38 -3 34 -6 37 -33 38
-16 1 -45 -1 -62 -3z"/>
<path d="M2221 718 c-13 -62 -26 -123 -28 -135 -4 -18 -1 -23 15 -23 16 0 23
9 29 43 l9 42 45 -3 46 -3 16 76 c10 42 15 80 12 85 -4 7 -91 30 -113 30 -4 0
-18 -51 -31 -112z m87 63 c10 -6 12 -21 7 -55 -6 -41 -10 -46 -32 -46 -24 0
-25 2 -18 48 10 65 15 71 43 53z"/>
<path d="M2467 803 c-14 -23 -77 -255 -72 -263 11 -17 25 -11 35 15 14 37 58
35 62 -2 2 -17 10 -29 21 -31 20 -4 21 5 4 168 -10 93 -15 115 -29 118 -9 2
-18 -1 -21 -5z m16 -175 c-5 -9 -33 -11 -33 -2 0 3 5 26 12 52 l12 47 7 -45
c4 -25 5 -48 2 -52z"/>
<path d="M2650 675 c0 -128 1 -135 20 -135 19 0 20 7 20 135 0 128 -1 135 -20
135 -19 0 -20 -7 -20 -135z"/>
</g>
</svg>
